<svg width="43" height="40" viewBox="0 0 43 40" fill="none" xmlns="http://www.w3.org/2000/svg">
<path d="M24.0394 32.8952C23.8251 32.8203 22.942 32.572 22.188 32.3087C17.5467 30.8681 8.60788 25.6324 5.09361 22.3491C4.54554 21.8571 3.26767 20.5632 2.84535 19.7504C25.1083 21.469 2.30447 18.1127 2.33841 17.2168C2.43662 16.0739 2.9153 14.9705 3.69376 14.1253C4.24324 13.5586 6.05858 12.2298 6.09416 12.2132C8.09757 10.7968 15.071 15.8321 19 14C22.7434 12.2544 22.7359 3.97083 25.1083 3.25941C25.1612 3.27995 27.8314 2.51708 28.8848 2.55335C30.8107 2.62281 32.5002 3.72479 33.2749 5.38603L33.3418 5.52963C33.8082 6.62931 21.7459 20.0666 30.5055 18.969C40.2524 9.46904 32.4637 23.87 30.5055 28.4754C30.5055 28.4754 30.0372 29.7337 29.669 30.3575C29.1615 31.2994 28.3323 32.0357 27.3691 32.4849C26.2941 32.9862 25.1415 33.1288 24.0394 32.8952Z" fill="#1E2875"/>
</svg>
