<svg width="16" height="16" viewBox="0 0 16 16" fill="none" xmlns="http://www.w3.org/2000/svg">
<path d="M8.00004 7.33334C8.8841 7.33334 9.73194 7.68453 10.3571 8.30965C10.9822 8.93477 11.3334 9.78262 11.3334 10.6667V14.6667H4.66671V10.6667C4.66671 9.78262 5.0179 8.93477 5.64302 8.30965C6.26814 7.68453 7.11599 7.33334 8.00004 7.33334ZM3.52537 9.33734C3.41928 9.6952 3.35661 10.0645 3.33871 10.4373L3.33337 10.6667V14.6667H1.33337V11.6667C1.33324 11.0917 1.54539 10.537 1.92913 10.1088C2.31287 9.68066 2.84117 9.40926 3.41271 9.34668L3.52537 9.33734ZM12.4747 9.33734C13.068 9.3735 13.6251 9.63465 14.0324 10.0675C14.4398 10.5004 14.6666 11.0723 14.6667 11.6667V14.6667H12.6667V10.6667C12.6667 10.2047 12.6 9.75868 12.4747 9.33734ZM3.66671 5.33334C4.10873 5.33334 4.53266 5.50894 4.84522 5.8215C5.15778 6.13406 5.33337 6.55798 5.33337 7.00001C5.33337 7.44204 5.15778 7.86596 4.84522 8.17852C4.53266 8.49108 4.10873 8.66668 3.66671 8.66668C3.22468 8.66668 2.80076 8.49108 2.4882 8.17852C2.17564 7.86596 2.00004 7.44204 2.00004 7.00001C2.00004 6.55798 2.17564 6.13406 2.4882 5.8215C2.80076 5.50894 3.22468 5.33334 3.66671 5.33334ZM12.3334 5.33334C12.7754 5.33334 13.1993 5.50894 13.5119 5.8215C13.8244 6.13406 14 6.55798 14 7.00001C14 7.44204 13.8244 7.86596 13.5119 8.17852C13.1993 8.49108 12.7754 8.66668 12.3334 8.66668C11.8913 8.66668 11.4674 8.49108 11.1549 8.17852C10.8423 7.86596 10.6667 7.44204 10.6667 7.00001C10.6667 6.55798 10.8423 6.13406 11.1549 5.8215C11.4674 5.50894 11.8913 5.33334 12.3334 5.33334ZM8.00004 1.33334C8.70728 1.33334 9.38556 1.6143 9.88566 2.11439C10.3858 2.61449 10.6667 3.29277 10.6667 4.00001C10.6667 4.70725 10.3858 5.38553 9.88566 5.88563C9.38556 6.38573 8.70728 6.66668 8.00004 6.66668C7.2928 6.66668 6.61452 6.38573 6.11442 5.88563C5.61433 5.38553 5.33337 4.70725 5.33337 4.00001C5.33337 3.29277 5.61433 2.61449 6.11442 2.11439C6.61452 1.6143 7.2928 1.33334 8.00004 1.33334Z" fill="black"/>
</svg>
