<svg width="22" height="22" viewBox="0 0 22 22" fill="none" xmlns="http://www.w3.org/2000/svg">
<path d="M8.25001 1.83331C4.71704 1.83331 1.83334 4.71701 1.83334 8.24998C1.83334 11.7829 4.71704 14.6666 8.25001 14.6666C9.85234 14.6666 11.3163 14.069 12.443 13.0911L12.8333 13.4814V14.6666L18.3333 20.1666L20.1667 18.3333L14.6667 12.8333H13.4815L13.0912 12.443C14.069 11.3162 14.6667 9.85231 14.6667 8.24998C14.6667 4.71701 11.783 1.83331 8.25001 1.83331ZM8.25001 3.66665C10.7922 3.66665 12.8333 5.70782 12.8333 8.24998C12.8333 10.7921 10.7922 12.8333 8.25001 12.8333C5.70785 12.8333 3.66668 10.7921 3.66668 8.24998C3.66668 5.70782 5.70785 3.66665 8.25001 3.66665Z" fill="#BDBDBD"/>
</svg>
